<svg xmlns="http://www.w3.org/2000/svg" xmlns:xlink="http://www.w3.org/1999/xlink" version="1.1" x="0px" y="0px" viewBox="0 0 100 100" enable-background="new 0 0 100 100" xml:space="preserve"><path fill-rule="evenodd" clip-rule="evenodd" d="M50.039,13.36l-0.371,2.546c-0.185,0.679-0.309,1.157-0.37,1.435  c-0.247,0.802-0.401,1.296-0.462,1.481c-0.496,1.296-0.85,2.269-1.066,2.917c-0.339,1.112-0.555,2.161-0.647,3.149  c-0.062,0.247-0.092,0.493-0.092,0.741c0,0.37,0,0.633,0,0.787c0,0.556,0.046,1.019,0.139,1.389l0.139,0.416  c0,0.032,0,0.063,0,0.094l0.139,0.045c0.124,0.125,0.4,0.187,0.833,0.187c0.587,0,1.513-0.062,2.778-0.187l2.547-0.091  c3.333-0.124,5.016,0,5.046,0.371c0.062,0.339-1.543,0.818-4.814,1.435l-3.89,0.648c-0.647,0.124-1.188,0.185-1.62,0.185  c-0.124,0.032-0.277,0.032-0.463,0l-0.741-0.046l-0.324-0.093c-0.124-0.031-0.324-0.108-0.601-0.231  c-0.155-0.093-0.34-0.232-0.556-0.417c-0.246-0.216-0.401-0.401-0.463-0.555c-0.154-0.154-0.247-0.34-0.277-0.556  c-0.156-0.217-0.233-0.401-0.233-0.556c-0.122-0.494-0.216-1.158-0.277-1.991c0-0.186,0.016-0.495,0.047-0.926  c0-0.371,0.031-0.694,0.092-0.973c0.124-1.142,0.401-2.346,0.833-3.611c0.278-0.803,0.694-1.805,1.25-3.01  c0.555-1.326,1.111-2.979,1.666-4.953c0.464-1.944,0.772-3.102,0.926-3.473c0.278-0.865,0.509-1.281,0.695-1.249  c0.153,0,0.246,0.462,0.277,1.388C50.24,10.674,50.193,11.908,50.039,13.36z M50.965,10.211c-0.124-0.462-0.278-0.957-0.463-1.481  c-0.124-0.309-0.277-0.619-0.463-0.927c-0.062-0.155-0.201-0.231-0.416-0.231c-0.155,0.031-0.387,0.124-0.696,0.278  c-0.524,0.216-0.833,0.293-0.925,0.231c-0.155-0.154-0.077-0.478,0.231-0.973c0.217-0.4,0.495-0.694,0.833-0.879  c0.31-0.123,0.603-0.2,0.88-0.231c0.339-0.03,0.695,0.062,1.065,0.278c0.494,0.278,0.958,0.756,1.39,1.435  c0.339,0.557,0.617,1.158,0.833,1.806c0.432,1.111,0.787,2.454,1.065,4.027c0.4,2.315,0.602,4.63,0.602,6.945  c0.462,0.186,0.925,0.325,1.388,0.417c0.526,0.092,1.42,0.139,2.686,0.139c0.833,0,1.42,0.015,1.759,0.046  c0.741,0.062,1.436,0.231,2.083,0.509v0.047c0.896,0.37,1.543,0.771,1.944,1.204c0.586,0.524,1.095,1.172,1.527,1.943  c0.278,0.495,0.649,1.205,1.111,2.13c0.463,0.74,0.941,1.282,1.435,1.621c0.155,0.093,0.51,0.263,1.066,0.509  c0.277,0.093,0.648,0.154,1.111,0.186c0.678,0.092,1.575,0.061,2.686-0.093c0.679-0.062,1.667-0.217,2.963-0.463  c1.451-0.216,2.515-0.37,3.195-0.464c1.42-0.184,2.608-0.261,3.565-0.231c0.71,0.031,1.373,0.17,1.99,0.417l1.065,0.509l0.508,0.463  l0.464,0.555c0.309,0.647,0.447,1.435,0.417,2.361c-0.063,0.679-0.171,1.343-0.325,1.99c-0.247,1.112-0.633,2.347-1.157,3.704  c-0.217,0.525-0.494,1.127-0.834,1.806c-0.37,0.74-0.742,1.343-1.112,1.806c-0.123,0.184-0.246,0.355-0.37,0.509l-1.25,1.111  c-0.525,0.339-1.173,0.68-1.944,1.018c-0.896,0.432-2.162,0.895-3.796,1.389l-1.853,0.648c-0.433,0.154-1.019,0.402-1.759,0.741  c-2.716,1.296-4.969,2.871-6.76,4.722c-0.092,0.186-0.168,0.325-0.231,0.417c-0.216,0.679-0.354,1.373-0.417,2.083  c-0.03,0.648,0.031,1.357,0.186,2.13l0.231,0.926c0.063,0.153,0.17,0.417,0.324,0.787l0.046,0.186l0.463,1.018  c0.154,0.34,0.185,0.571,0.092,0.695c-0.123,0.154-0.37,0.185-0.74,0.092c-0.248-0.092-0.463-0.216-0.648-0.371l-0.74-0.555  c-0.401-0.432-0.648-0.726-0.741-0.879l-0.602-1.158c-0.154-0.402-0.247-0.802-0.278-1.204c-0.494,0.926-0.879,1.898-1.158,2.916  c-0.463,1.604-0.633,3.272-0.509,5c0,1.204,0.046,2.963,0.139,5.277c0,0.957-0.015,1.821-0.046,2.594  c-0.123,0.987-0.262,1.836-0.417,2.546c-0.369,1.512-1.002,3.024-1.897,4.537l-0.324,0.509l-2.314,3.009  c-2.778,3.179-6.095,5.941-9.954,8.287c-0.555,0.339-1.111,0.68-1.666,1.019c-0.896,0.586-1.853,1.143-2.871,1.667l-1.482,0.74  c-0.154-0.216-0.277-0.4-0.371-0.555c-0.339-0.463-0.91-1.281-1.713-2.454c-0.802-1.173-1.588-2.346-2.36-3.519  c-1.451-2.222-2.623-3.982-3.52-5.278l-4.305-6.528c-1.019-1.542-1.805-2.731-2.361-3.564c-0.401-0.709-1.188-1.991-2.362-3.843  c-1.204-1.759-2.099-3.102-2.685-4.027c-1.05-1.575-1.944-3.01-2.685-4.306c-0.247-0.464-0.478-0.927-0.695-1.389  c0.062,0.462,0.093,0.787,0.093,0.972c0.124,1.42,0.03,2.19-0.278,2.315c-0.371,0.123-0.879-0.464-1.528-1.76  c-0.679-1.481-1.188-3.178-1.528-5.092c-0.092-0.772-0.139-1.482-0.139-2.13c-0.062,0.186-0.108,0.37-0.139,0.557  c-0.278,1.573-0.432,2.638-0.462,3.193c-0.062,0.617-0.108,1.358-0.139,2.222c-0.062,0.556-0.154,0.849-0.278,0.879  c-0.154,0.062-0.385-0.169-0.694-0.694l-0.232-0.462L12.4,57.388c0-0.032-0.047-0.262-0.139-0.695  c-0.155-0.988-0.17-2.207-0.047-3.657c0.155-1.328,0.479-2.732,0.973-4.213c0.524-1.389,1.142-2.716,1.852-3.981  c0.802-1.235,1.527-2.176,2.174-2.825c0.278-0.277,0.557-0.541,0.835-0.787c0.493-0.678,1.079-1.343,1.758-1.991  c1.11-1.081,2.423-2.207,3.935-3.38c0.648-0.463,1.959-1.389,3.936-2.778c1.759-1.266,2.962-2.16,3.611-2.685  c0.988-0.833,2.021-1.774,3.102-2.825c1.636-1.605,3.256-3.533,4.861-5.787c1.019-1.481,2.129-3.256,3.333-5.324l2.361-4.167  c1.358-2.407,2.1-3.564,2.222-3.473c0.185,0.062-0.247,1.358-1.296,3.889c-0.586,1.482-1.25,2.963-1.99,4.444  c-1.05,2.191-2.083,4.09-3.103,5.695c-1.481,2.314-3.101,4.398-4.861,6.25c-1.048,1.142-2.098,2.16-3.147,3.056  c-0.771,0.647-2.006,1.604-3.704,2.87c-2.284,1.698-3.549,2.639-3.796,2.824c-1.482,1.111-2.701,2.176-3.658,3.195  c-1.296,1.326-2.252,2.592-2.869,3.796c-0.372,0.71-0.634,1.435-0.788,2.175c-0.153,0.802-0.216,1.59-0.185,2.361  c0.031,0.093,0.062,0.277,0.092,0.556l0.325,1.805c0.184,0.71,0.293,1.127,0.323,1.25c0.124,0.248,0.263,0.633,0.417,1.158  c0.463,1.265,1.173,2.778,2.13,4.537c0.679,1.235,1.512,2.64,2.5,4.213c0.587,0.926,1.435,2.284,2.546,4.075l8.612,14.259  c0.4,0.617,1.48,2.438,3.241,5.463l2.314,4.259c0.463,0.833,0.879,1.419,1.25,1.759l2.222-1.111l2.871-1.944  c0.061-0.062,0.37-0.293,0.926-0.694l1.018-0.787c0.155-0.124,0.525-0.432,1.111-0.926l1.157-0.972  c2.129-1.976,3.766-3.704,4.908-5.185l2.269-3.334c0.772-1.389,1.281-2.732,1.528-4.028c0.278-1.203,0.371-2.746,0.278-4.629  c-0.124-2.222-0.201-3.936-0.231-5.138c-0.155-1.945,0.016-3.89,0.509-5.833c0.524-2.007,1.374-3.858,2.546-5.557  c2.253-3.24,5.494-5.879,9.722-7.917c0.741-0.339,1.389-0.617,1.944-0.833c0.586-0.186,1.235-0.401,1.944-0.648  c1.667-0.493,2.871-0.91,3.612-1.25c0.647-0.309,1.126-0.587,1.435-0.834c0.062-0.03,0.185-0.092,0.371-0.184l0.741-0.833  c0.278-0.371,0.57-0.849,0.878-1.435l0.741-1.622c0.463-1.048,0.833-2.129,1.111-3.24c0.186-0.679,0.278-1.204,0.278-1.574  c0.031-0.247,0.031-0.479,0-0.695c0-0.185-0.046-0.324-0.139-0.416v-0.046h-0.047l-0.092-0.14l-0.277-0.185l-0.278-0.092  c-0.339-0.155-0.787-0.247-1.343-0.278c-0.741-0.062-1.775-0.031-3.103,0.093c-0.585,0.062-1.636,0.2-3.147,0.417  c-1.328,0.186-2.362,0.309-3.103,0.371c-1.234,0.092-2.268,0.092-3.102,0c-0.154-0.031-0.416-0.078-0.787-0.139  c-0.309-0.062-0.571-0.154-0.788-0.278c-0.617-0.217-1.08-0.463-1.389-0.741c-0.771-0.524-1.42-1.282-1.944-2.269  c-0.463-1.05-0.803-1.79-1.02-2.222c-0.339-0.71-0.709-1.266-1.111-1.667c-0.278-0.309-0.771-0.649-1.481-1.02l-0.046-0.045  c-0.463-0.247-0.941-0.417-1.435-0.509c-0.524-0.062-1.42-0.078-2.685-0.047c-1.266,0-2.3-0.093-3.103-0.278  c-0.802-0.216-1.419-0.447-1.852-0.695c-0.401-1.697-0.88-4.151-1.435-7.361C51.459,12.418,51.212,11.168,50.965,10.211z   M57.215,48.684c-0.556,0.309-0.988,0.556-1.297,0.741l-2.453,1.759c-1.637,1.452-2.994,2.933-4.074,4.445  c-1.234,1.82-2.161,3.487-2.778,5c-1.204,2.777-2.13,5.926-2.778,9.444c-0.309,1.605-0.633,3.827-0.973,6.666  c-0.215,1.636-0.4,2.454-0.555,2.454c-0.217,0-0.386-0.833-0.509-2.5c-0.124-2.005-0.047-4.305,0.23-6.898  c0.34-3.611,1.127-6.975,2.361-10.094c0.648-1.759,1.605-3.595,2.871-5.508c1.172-1.76,2.67-3.441,4.491-5.046l2.823-1.944  c0.926-0.525,1.42-0.803,1.481-0.834l1.482-0.695c1.573-0.617,3.518-1.234,5.833-1.852c0.71-0.154,2.471-0.571,5.279-1.25  c1.945-0.463,3.441-0.849,4.49-1.158c2.1-0.586,4.152-1.404,6.158-2.453c1.451-0.772,2.207-1.143,2.268-1.111  c0.062,0.093-0.046,0.308-0.324,0.648c-0.401,0.463-0.865,0.895-1.389,1.296c-1.575,1.295-3.612,2.422-6.112,3.379  c-1.142,0.432-2.654,0.926-4.537,1.481c-2.252,0.649-3.965,1.142-5.139,1.482c-2.252,0.679-4.089,1.312-5.509,1.898L57.215,48.684z"></path></svg>